<svg xmlns="http://www.w3.org/2000/svg" xmlns:xlink="http://www.w3.org/1999/xlink" viewBox="0 0 130.65 130.65"><defs><style>.a{fill:none;stroke-miterlimit:10;stroke-width:2px;stroke:url(#a);}</style><linearGradient id="a" y1="65.33" x2="130.65" y2="65.33" gradientTransform="translate(130.65 130.65) rotate(180)" gradientUnits="userSpaceOnUse"><stop offset="0" stop-color="#d140b3"/><stop offset="1" stop-color="aqua"/></linearGradient></defs><path class="a" d="M31.77,49.65c16.82,0,30.45,15.68,30.45,15.68S48.59,81,31.77,81,1.33,65.33,1.33,65.33,15,49.65,31.77,49.65Zm-11.7,60.93S40.79,112,52.68,100.13,63.13,67.52,63.13,67.52,42.41,66.08,30.52,78,20.07,110.58,20.07,110.58Zm0-90.51S18.63,40.79,30.52,52.68,63.13,63.13,63.13,63.13s1.45-20.72-10.45-32.61S20.07,20.07,20.07,20.07ZM65.33,1.33S49.65,15,49.65,31.77,65.33,62.22,65.33,62.22,81,48.59,81,31.77,65.33,1.33,65.33,1.33Zm45.25,18.74S89.86,18.63,78,30.52,67.52,63.13,67.52,63.13s20.72,1.45,32.61-10.45S110.58,20.07,110.58,20.07Zm18.75,45.26S115.69,49.65,98.88,49.65,68.43,65.33,68.43,65.33,82.06,81,98.88,81,129.33,65.33,129.33,65.33Zm-18.75,45.25S112,89.86,100.13,78,67.52,67.52,67.52,67.52,66.08,88.24,78,100.13,110.58,110.58,110.58,110.58ZM65.33,129.33S81,115.69,81,98.88,65.33,68.43,65.33,68.43,49.65,82.06,49.65,98.88,65.33,129.33,65.33,129.33Z"/></svg>